KRSPY-parametric-WideBlackMinGrade.ufo
<glyph name="two" format="2">
  <advance width="5495"/>
  <unicode hex="0032"/>
  <outline>
    <contour>
      <point x="167" y="0" type="line"/>
      <point x="5327" y="0" type="line" identifier="pzdvPTirLJ"/>
      <point x="5327" y="314" type="line" identifier="91SxUS0iwG"/>
      <point x="4601" y="314" type="line" identifier="fP7EN0pUcl"/>
      <point x="4601" y="436" type="line" identifier="eb458Bdvng"/>
      <point x="968" y="436" type="line"/>
      <point x="968" y="669" type="line" identifier="9fjc25rkUx"/>
      <point x="5322" y="778" type="line" identifier="yyb1NCCI5w"/>
      <point x="5322" y="1600" type="line" identifier="5FogYRSgkk"/>
      <point x="171" y="1600" type="line" identifier="svlFvrau4c"/>
      <point x="171" y="1222" type="line" identifier="LQ9fBsTy9K"/>
      <point x="897" y="1222" type="line" identifier="jS6EyIAKtm"/>
      <point x="897" y="1165" type="line"/>
      <point x="4521" y="1165" type="line" identifier="N6CMAjhNlU"/>
      <point x="4521" y="830" type="line" identifier="yK1d5IcluK"/>
      <point x="167" y="716" type="line" identifier="teVKnpBcVb"/>
    </contour>
  </outline>
</glyph>
<glyph name="four" format="2">
  <advance width="5509"/>
  <unicode hex="0034"/>
  <outline>
    <contour>
      <point x="4167" y="0" type="line"/>
      <point x="4910" y="0" type="line"/>
      <point x="4910" y="550" type="line"/>
      <point x="5407" y="550" type="line"/>
      <point x="5407" y="985" type="line"/>
      <point x="4910" y="985" type="line"/>
      <point x="4910" y="1600" type="line"/>
      <point x="4167" y="1600" type="line"/>
      <point x="4167" y="985" type="line"/>
      <point x="909" y="985" type="line"/>
      <point x="909" y="1237" type="line"/>
      <point x="1464" y="1680" type="line"/>
      <point x="735" y="1680" type="line"/>
      <point x="166" y="1237" type="line"/>
      <point x="166" y="550" type="line"/>
      <point x="4167" y="550" type="line"/>
    </contour>
  </outline>
</glyph>
<glyph name="eight" format="2">
  <advance width="5516"/>
  <unicode hex="0038"/>
  <outline>
    <contour>
      <point x="4197" y="634" type="line"/>
      <point x="4602" y="349" type="line"/>
      <point x="4602" y="432" type="line"/>
      <point x="913" y="432" type="line"/>
      <point x="913" y="347" type="line"/>
      <point x="1320" y="634" type="line"/>
    </contour>
    <contour>
      <point x="4866" y="799" type="line"/>
      <point x="4866" y="801" type="line"/>
      <point x="5342" y="1213" type="line"/>
      <point x="5342" y="1600" type="line"/>
      <point x="175" y="1600" type="line"/>
      <point x="175" y="1213" type="line"/>
      <point x="651" y="801" type="line"/>
      <point x="651" y="799" type="line"/>
      <point x="171" y="374" type="line"/>
      <point x="171" y="0" type="line"/>
      <point x="5346" y="0" type="line"/>
      <point x="5346" y="374" type="line"/>
    </contour>
    <contour>
      <point x="1320" y="969" type="line"/>
      <point x="917" y="1242" type="line"/>
      <point x="917" y="1171" type="line"/>
      <point x="4598" y="1171" type="line"/>
      <point x="4598" y="1242" type="line"/>
      <point x="4197" y="969" type="line"/>
    </contour>
  </outline>
</glyph>
<glyph name="nine" format="2">
  <advance width="5496"/>
  <unicode hex="0039"/>
  <outline>
    <contour>
      <point x="5328" y="1600" type="line" identifier="uiw6aBUf4P"/>
      <point x="165" y="1600" type="line" identifier="jtYkxiUX6G"/>
      <point x="165" y="658" type="line" identifier="2G5L37c87I"/>
      <point x="4585" y="658" type="line"/>
      <point x="4585" y="434" type="line"/>
      <point x="894" y="434" type="line"/>
      <point x="894" y="338" type="line"/>
      <point x="169" y="338" type="line" identifier="Wuidbv6mUe"/>
      <point x="169" y="0" type="line" identifier="oGvEEuxnYv"/>
      <point x="5328" y="0" type="line" identifier="xR3pEHbMJx"/>
    </contour>
    <contour>
      <point x="908" y="993" type="line"/>
      <point x="908" y="1163" type="line"/>
      <point x="4585" y="1163" type="line"/>
      <point x="4585" y="993" type="line"/>
    </contour>
  </outline>
</glyph>
<glyph name="B" format="2">
  <advance width="5456"/>
  <unicode hex="0042"/>
  <outline>
    <contour>
      <point x="141" y="0" type="line" identifier="hvY9r8RmLr"/>
      <point x="5304" y="0" type="line" identifier="9QFpw7nfq7"/>
      <point x="5304" y="376" type="line" identifier="543PerILpr"/>
      <point x="4852" y="799" type="line" identifier="zhomauHW30"/>
      <point x="4852" y="801" type="line" identifier="870ZhtaozS"/>
      <point x="5212" y="1215" type="line" identifier="eGKH52Jgnk"/>
      <point x="5212" y="1600" type="line" identifier="FaP204GrdB"/>
      <point x="141" y="1600" type="line" identifier="JEev70GAj6"/>
    </contour>
    <contour>
      <point x="884" y="986" type="line" identifier="By7dfMihfe"/>
      <point x="884" y="1173" type="line" identifier="1p5hKrurVy"/>
      <point x="4469" y="1173" type="line" identifier="Qby8aMtF2X"/>
      <point x="4469" y="1260" type="line" identifier="9lW01gQyU2"/>
      <point x="4206" y="986" type="line" identifier="xpxyvIzPoc"/>
    </contour>
    <contour>
      <point x="884" y="426" type="line" identifier="jaMSiLrCua"/>
      <point x="884" y="614" type="line" identifier="XSrxNd2axx"/>
      <point x="4183" y="614" type="line" identifier="VyYlzRh5nq"/>
      <point x="4561" y="327" type="line" identifier="lsRGatjQja"/>
      <point x="4561" y="426" type="line" identifier="xhlDJ3CjD5"/>
    </contour>
  </outline>
</glyph>
<glyph name="F" format="2">
  <advance width="5409"/>
  <unicode hex="0046"/>
  <outline>
    <contour>
      <point x="167" y="0" type="line" identifier="oAgH2tA6DJ"/>
      <point x="909" y="0" type="line" identifier="zCZyMcW5ho"/>
      <point x="909" y="358" type="line" identifier="yHYqkMd7LI"/>
      <point x="4918" y="358" type="line" identifier="NmB7yyQuio"/>
      <point x="4918" y="787" type="line" identifier="wQk2C8zPHh"/>
      <point x="909" y="787" type="line" identifier="4cFHKQfHDt"/>
      <point x="909" y="1158" type="line" identifier="ZvzwyrcwpS"/>
      <point x="4593" y="1158" type="line" identifier="4E754ovOIe"/>
      <point x="4593" y="1157" type="line" identifier="vZkeT9KrKR"/>
      <point x="5250" y="1157" type="line" identifier="0tk7G4orz6"/>
      <point x="5250" y="1600" type="line" identifier="NUrIjqOB7J"/>
      <point x="167" y="1600" type="line" identifier="TBAYuCfUFX"/>
    </contour>
  </outline>
</glyph>
<glyph name="L" format="2">
  <advance width="4543.471471471472"/>
  <unicode hex="004C"/>
  <outline>
    <contour>
      <point x="414.4684684684685" y="0.0" type="line" identifier="XkJNfQlnnt"/>
      <point x="4425.542542542543" y="0.0" type="line" identifier="82EXZEgt46"/>
      <point x="4425.542542542543" y="289.37537537537537" type="line" identifier="VYRt9kHZtP"/>
      <point x="4425.286286286287" y="289.37537537537537" type="line" identifier="t7Q9RRLHt8"/>
      <point x="4427.088088088089" y="629.0270270270271" type="line" identifier="cqpSxwFiM3"/>
      <point x="1271.012012012012" y="629.0270270270271" type="line" identifier="MbxRZRd8vz"/>
      <point x="1271.012012012012" y="1600.0" type="line" identifier="lYiaKSKITt"/>
      <point x="414.4684684684685" y="1600.0" type="line" identifier="XFf4mMUzYo"/>
    </contour>
  </outline>
</glyph>
<glyph name="M" format="2">
  <advance width="6489"/>
  <unicode hex="004D"/>
  <outline>
    <contour>
      <point x="2781" y="4" type="line" identifier="0Dn4Xpf57M"/>
      <point x="954" y="1139" type="line"/>
      <point x="911" y="1139" type="line"/>
      <point x="911" y="0" type="line"/>
      <point x="169" y="0" type="line"/>
      <point x="169" y="1600" type="line"/>
      <point x="1420" y="1600" type="line"/>
      <point x="3227" y="435" type="line"/>
      <point x="3262" y="435" type="line" identifier="9aKZPM0HPh"/>
      <point x="5069" y="1600" type="line"/>
      <point x="6320" y="1600" type="line"/>
      <point x="6320" y="0" type="line"/>
      <point x="5578" y="0" type="line"/>
      <point x="5578" y="1139" type="line"/>
      <point x="5536" y="1139" type="line"/>
      <point x="3707" y="4" type="line" identifier="spdoeeCFft"/>
    </contour>
  </outline>
</glyph>
<glyph name="N" format="2">
  <advance width="4956.588588588589"/>
  <unicode hex="004E"/>
  <outline>
    <contour>
      <point x="414.4684684684685" y="0.0" type="line" identifier="CkwYPPvJLv"/>
      <point x="1269.3673673673673" y="0.0" type="line" identifier="oHTJsN7drZ"/>
      <point x="1269.3673673673673" y="970.972972972973" type="line" identifier="wfBbYd10Pm"/>
      <point x="1285.111111111111" y="970.972972972973" type="line" identifier="MEnBDHq6zU"/>
      <point x="3673.525525525525" y="1.4210854715202004e-14" type="line" identifier="3Nbopwznvn"/>
      <point x="3678.013013013013" y="0.0" type="line"/>
      <point x="4542.120120120121" y="0.0" type="line" identifier="uKfuudIUvA"/>
      <point x="4542.120120120121" y="1600.0" type="line" identifier="XRdLFXiM4t"/>
      <point x="3687.2212212212207" y="1600.0" type="line" identifier="MUSJPjCIXg"/>
      <point x="3687.2212212212207" y="629.0270270270272" type="line" identifier="VILP20cFmq"/>
      <point x="3673.6826826826823" y="629.0270270270272" type="line" identifier="z5b04GDwRN"/>
      <point x="1285.111111111111" y="1600.0" type="line" identifier="LL64NQ6WBE"/>
      <point x="414.4684684684685" y="1600.0" type="line" identifier="dzUaaP1sjt"/>
    </contour>
  </outline>
</glyph>
<glyph name="O" format="2">
  <advance width="5500"/>
  <unicode hex="004F"/>
  <outline>
    <contour>
      <point x="5357" y="864" type="line" identifier="ob8US3C311"/>
      <point x="5357" y="1600" type="line" identifier="c9brEFyXXA"/>
      <point x="739" y="1600" type="line" identifier="a4Ql951bxG"/>
      <point x="137" y="733" type="line" identifier="kbL68Qh2zr"/>
      <point x="137" y="0" type="line" identifier="U6WibAQAUl"/>
      <point x="4755" y="0" type="line" identifier="dfgNHTgBfR"/>
    </contour>
    <contour>
      <point x="4615" y="995" type="line" identifier="SnrsQD5TLy"/>
      <point x="4157" y="450" type="line" identifier="jjd5iRDXWT"/>
      <point x="880" y="450" type="line" identifier="YbQKHpAtYn"/>
      <point x="880" y="606" type="line" identifier="vdfGLkskOQ"/>
      <point x="1337" y="1150" type="line" identifier="qXlVxK5ShE"/>
      <point x="4615" y="1150" type="line" identifier="g70r2r6DwY"/>
    </contour>
  </outline>
</glyph>
<glyph name="S" format="2">
  <advance width="5439"/>
  <unicode hex="0053"/>
  <outline>
    <contour>
      <point x="134" y="0" type="line" identifier="09VlJ0BjUX"/>
      <point x="5313" y="0" type="line" identifier="EagWihqFM8"/>
      <point x="5313" y="996" type="line" identifier="KfNuQA7eZe"/>
      <point x="896" y="996" type="line" identifier="At364YZFEy"/>
      <point x="896" y="1187" type="line" identifier="BcuLfvaQKC"/>
      <point x="4587" y="1187" type="line" identifier="3ZUkG35meB"/>
      <point x="4587" y="1301" type="line" identifier="DTOJhFIl15"/>
      <point x="5311" y="1301" type="line" identifier="9KDcrfQ5Ui"/>
      <point x="5311" y="1600" type="line" identifier="SaF9ojRFrW"/>
      <point x="153" y="1600" type="line" identifier="F4sQEYelA8"/>
      <point x="153" y="628" type="line" identifier="3sQ8t8BZ6b"/>
      <point x="4570" y="628" type="line" identifier="yiV6OCBLHg"/>
      <point x="4570" y="436" type="line" identifier="9kdl9SYsn8"/>
      <point x="859" y="436" type="line" identifier="yZDWuX8LLe"/>
      <point x="859" y="311" type="line" identifier="jYb9001DTm"/>
      <point x="134" y="311" type="line" identifier="ho4DrS0rdW"/>
    </contour>
  </outline>
</glyph>
<glyph name="U" format="2">
  <advance width="5818.328328328328"/>
  <unicode hex="0055"/>
  <outline>
    <contour>
      <point x="4547.217217217217" y="1600.0" type="line" smooth="yes"/>
      <point x="4547.217217217217" y="574.9729729729729" type="line"/>
      <point x="1497.8088088088086" y="574.9729729729729" type="line" smooth="yes"/>
      <point x="1191.6106106106106" y="854.013013013013" type="line" smooth="yes"/>
      <point x="1191.6106106106106" y="1600.0" type="line"/>
      <point x="336.7117117117117" y="1600.0" type="line" smooth="yes"/>
      <point x="336.7117117117117" y="498.0000000000001" type="line" smooth="yes"/>
      <point x="844.7117117117117" y="0.0" type="line" smooth="yes"/>
      <point x="5403.85985985986" y="0.0" type="line" smooth="yes"/>
      <point x="5403.85985985986" y="1600.0" type="line" smooth="yes"/>
    </contour>
  </outline>
</glyph>
<glyph name="W" format="2">
  <advance width="7831"/>
  <unicode hex="0057"/>
  <outline>
    <contour>
      <point x="1320" y="1600" type="line" smooth="yes" identifier="12Pyby1xY2"/>
      <point x="577" y="1600" type="line" smooth="yes" identifier="5LJg4ajoG6"/>
      <point x="577" y="0" type="line" smooth="yes" identifier="ZqTZqAY3uY"/>
      <point x="3678" y="0" type="line" smooth="yes" identifier="rCeQLyjlsN"/>
      <point x="3903" y="265" type="line"/>
      <point x="3920" y="265" type="line"/>
      <point x="4137" y="0" type="line" smooth="yes" identifier="Pkl7cZ37MU"/>
      <point x="6658" y="0" type="line" smooth="yes" identifier="R4lklfJsHA"/>
      <point x="7265" y="711" type="line" smooth="yes" identifier="7g7f8Wu7K4"/>
      <point x="7265" y="1600" type="line" smooth="yes" identifier="RTOJW56qXy"/>
      <point x="6522" y="1600" type="line" identifier="JfSFAkWGZC"/>
      <point x="6522" y="778" type="line" smooth="yes" identifier="WWvGwSpq0g"/>
      <point x="6040" y="441" type="line" smooth="yes" identifier="oee4nqI8Wl"/>
      <point x="4459" y="441" type="line" identifier="Ljn2lpvpG8"/>
      <point x="4268" y="652" type="line"/>
      <point x="4269" y="1089" type="line" smooth="yes"/>
      <point x="3575" y="1089" type="line"/>
      <point x="3574" y="727" type="line"/>
      <point x="3575" y="658" type="line"/>
      <point x="3370" y="441" type="line" identifier="GlWB6PG54Z"/>
      <point x="1320" y="441" type="line" identifier="iqeTRv7HXg"/>
    </contour>
  </outline>
</glyph>
<glyph name="X" format="2">
  <advance width="5751.728728728729"/>
  <unicode hex="0058"/>
  <outline>
    <contour>
      <point x="4177.217217217217" y="507.1081081081082" type="line"/>
      <point x="4559.217217217218" y="264.3513513513514" type="line"/>
      <point x="4559.217217217218" y="0.0" type="line"/>
      <point x="5415.017017017017" y="0.0" type="line"/>
      <point x="5415.017017017017" y="557.2432432432432" type="line"/>
      <point x="5034.760760760761" y="799.0" type="line"/>
      <point x="5034.760760760761" y="801.0" type="line"/>
      <point x="5412.017017017017" y="1027.7567567567567" type="line"/>
      <point x="5412.017017017017" y="1600.0" type="line"/>
      <point x="4556.217217217218" y="1600.0" type="line"/>
      <point x="4556.217217217218" y="1320.6486486486485" type="line"/>
      <point x="4177.217217217217" y="1092.8918918918919" type="line"/>
      <point x="1575.3543543543542" y="1092.8918918918919" type="line"/>
      <point x="1195.5115115115118" y="1320.6486486486485" type="line"/>
      <point x="1195.5115115115118" y="1600.0" type="line"/>
      <point x="339.7117117117117" y="1600.0" type="line"/>
      <point x="339.7117117117117" y="1027.7567567567567" type="line"/>
      <point x="719.4554554554554" y="801.0" type="line"/>
      <point x="719.4554554554554" y="799.0" type="line"/>
      <point x="336.7117117117117" y="557.2432432432432" type="line"/>
      <point x="336.7117117117117" y="0.0" type="line"/>
      <point x="1192.5115115115116" y="0.0" type="line"/>
      <point x="1192.5115115115116" y="264.3513513513514" type="line"/>
      <point x="1575.3543543543542" y="507.1081081081082" type="line"/>
    </contour>
  </outline>
</glyph>
<glyph name="Z" format="2">
  <advance width="5302.3613613613625"/>
  <unicode hex="005A"/>
  <outline>
    <contour>
      <point x="117.02802802802803" y="0.0" type="line"/>
      <point x="5185.333333333333" y="0.0" type="line" identifier="pzdvPTirLJ"/>
      <point x="5185.333333333333" y="429.74774774774767" type="line" identifier="91SxUS0iwG"/>
      <point x="4498.102102102102" y="429.74774774774767" type="line"/>
      <point x="4498.102102102102" y="574.9729729729729" type="line"/>
      <point x="1561.9169169169168" y="574.9729729729729" type="line"/>
      <point x="1561.9169169169168" y="630.3773773773775" type="line"/>
      <point x="5180.176176176176" y="869.3613613613612" type="line" identifier="yyb1NCCI5w"/>
      <point x="5180.176176176176" y="1600.0" type="line" identifier="5FogYRSgkk"/>
      <point x="120.02802802802802" y="1600.0" type="line" identifier="svlFvrau4c"/>
      <point x="120.02802802802802" y="1179.5755755755756" type="line" identifier="LQ9fBsTy9K"/>
      <point x="808.1021021021021" y="1179.5755755755756" type="line"/>
      <point x="808.1021021021021" y="1025.027027027027" type="line"/>
      <point x="3693.087087087087" y="1025.027027027027" type="line"/>
      <point x="3693.087087087087" y="963.858858858859" type="line"/>
      <point x="117.02802802802803" y="751.8458458458459" type="line" identifier="teVKnpBcVb"/>
    </contour>
  </outline>
</glyph>
<glyph name="C.wide" format="2">
  <advance width="5331"/>
  <outline>
    <contour>
      <point x="146" y="0" type="line" identifier="7lPhzTnk2Z"/>
      <point x="5157" y="0" type="line" identifier="qJVLZGnkwh"/>
      <point x="5157" y="443" type="line" identifier="Y750RHTvDj"/>
      <point x="887" y="443" type="line" identifier="L2LsGnXiZ2"/>
      <point x="887" y="763" type="line" identifier="sUWsr03vF4"/>
      <point x="1363" y="1157" type="line" identifier="dbOUe6OhxL"/>
      <point x="5156" y="1157" type="line" identifier="5BjRbcud80"/>
      <point x="5156" y="1600" type="line" identifier="9eJelv8BOw"/>
      <point x="738" y="1600" type="line" identifier="lfZev3ICaC"/>
      <point x="146" y="854" type="line" identifier="V1EWIdPahq"/>
    </contour>
  </outline>
</glyph>
<glyph name="E.wide" format="2">
  <advance width="5403"/>
  <outline>
    <contour>
      <point x="168" y="0" type="line" identifier="fZynkQ4XHB"/>
      <point x="5161" y="0" type="line" identifier="FAQNpgUPxV"/>
      <point x="5161" y="418" type="line" identifier="5cgTYOhATF"/>
      <point x="910" y="418" type="line" identifier="bWs42DaCgU"/>
      <point x="910" y="612" type="line" identifier="VtD2aADJmn"/>
      <point x="5011" y="612" type="line" identifier="PpbsFdHAnS"/>
      <point x="5011" y="988" type="line" identifier="8WuC5p8Ax5"/>
      <point x="910" y="988" type="line" identifier="m39IWn9ntA"/>
      <point x="910" y="1190" type="line" identifier="gQ21I4SHQg"/>
      <point x="5160" y="1190" type="line" identifier="eqNb2VTwYs"/>
      <point x="5160" y="1600" type="line" identifier="qYRmo14Il5"/>
      <point x="168" y="1600" type="line" identifier="HmJIcnLWfC"/>
    </contour>
  </outline>
</glyph>
<glyph name="F.wide" format="2">
  <advance width="4902.8268268268275"/>
  <outline>
    <contour>
      <point x="414.4684684684685" y="0.0" type="line" identifier="oAgH2tA6DJ"/>
      <point x="1269.3673673673673" y="0.0" type="line" identifier="zCZyMcW5ho"/>
      <point x="1269.3673673673673" y="362.963963963964" type="line" identifier="yHYqkMd7LI"/>
      <point x="4544.798798798799" y="362.963963963964" type="line" identifier="NmB7yyQuio"/>
      <point x="4544.798798798799" y="855.0540540540541" type="line" identifier="wQk2C8zPHh"/>
      <point x="1269.3673673673673" y="855.0540540540541" type="line" identifier="4cFHKQfHDt"/>
      <point x="1269.3673673673673" y="1023.2252252252254" type="line" identifier="ZvzwyrcwpS"/>
      <point x="4785.798798798799" y="1023.2252252252254" type="line" identifier="4E754ovOIe"/>
      <point x="4785.798798798799" y="1600.0" type="line" identifier="NUrIjqOB7J"/>
      <point x="414.4684684684685" y="1600.0" type="line" identifier="TBAYuCfUFX"/>
    </contour>
  </outline>
</glyph>
<glyph name="G.wide" format="2">
  <advance width="5459"/>
  <outline>
    <contour>
      <point x="143" y="0" type="line" identifier="7lPhzTnk2Z"/>
      <point x="5302" y="0" type="line" identifier="qJVLZGnkwh"/>
      <point x="5302" y="902" type="line" identifier="uek1NNj7De"/>
      <point x="3273" y="902" type="line" identifier="qcvimxjndX"/>
      <point x="3273" y="567" type="line" identifier="EARaY3Su65"/>
      <point x="4565" y="567" type="line" identifier="4m6dHLVhZq"/>
      <point x="4565" y="434" type="line" identifier="Y750RHTvDj"/>
      <point x="885" y="434" type="line" identifier="L2LsGnXiZ2"/>
      <point x="885" y="829" type="line" identifier="sUWsr03vF4"/>
      <point x="1337" y="1164" type="line" identifier="dbOUe6OhxL"/>
      <point x="5302" y="1164" type="line" identifier="5BjRbcud80"/>
      <point x="5302" y="1600" type="line" identifier="9eJelv8BOw"/>
      <point x="689" y="1600" type="line" identifier="lfZev3ICaC"/>
      <point x="143" y="885" type="line" identifier="V1EWIdPahq"/>
    </contour>
  </outline>
</glyph>
<glyph name="K.alt" format="2">
  <advance width="5473"/>
  <outline>
    <contour>
      <point x="884" y="0" type="line" identifier="wmNm7XZsaF"/>
      <point x="884" y="573" type="line" identifier="O22liaP9Qk"/>
      <point x="4162" y="573" type="line" identifier="ELFBWIb1vd"/>
      <point x="4561" y="268" type="line" identifier="DzXo67YEfw"/>
      <point x="4561" y="0" type="line" identifier="aKpYWD78l2"/>
      <point x="5304" y="0" type="line" identifier="ChS7KlqGi6"/>
      <point x="5304" y="339" type="line" identifier="sWLgkU8Vey"/>
      <point x="4822" y="799" type="line" identifier="Of0iQc0wBG"/>
      <point x="4822" y="801" type="line" identifier="j4jnmtDJYB"/>
      <point x="5277" y="1600" type="line" identifier="dMJ1ywOKQQ"/>
      <point x="4565" y="1600" type="line" identifier="08OWjR2YBJ"/>
      <point x="4192" y="1023" type="line" identifier="g4YLdZEoM3"/>
      <point x="884" y="1023" type="line" identifier="uZuki3Isec"/>
      <point x="884" y="1600" type="line" identifier="nRfcNgqJ4H"/>
      <point x="141" y="1600" type="line" identifier="3XJlWt89ad"/>
      <point x="141" y="0" type="line" identifier="wdbO8kCovY"/>
    </contour>
  </outline>
</glyph>
<glyph name="N.wide" format="2">
  <advance width="4956.588588588589"/>
  <outline>
    <contour>
      <point x="414.4684684684685" y="0.0" type="line" identifier="CkwYPPvJLv"/>
      <point x="1269.3673673673673" y="0.0" type="line" identifier="oHTJsN7drZ"/>
      <point x="1269.3673673673673" y="970.972972972973" type="line" identifier="wfBbYd10Pm"/>
      <point x="1285.111111111111" y="970.972972972973" type="line" identifier="MEnBDHq6zU"/>
      <point x="3673.525525525525" y="0.0" type="line" identifier="3Nbopwznvn"/>
      <point x="4542.120120120121" y="0.0" type="line" identifier="uKfuudIUvA"/>
      <point x="4542.120120120121" y="1600.0" type="line" identifier="XRdLFXiM4t"/>
      <point x="3687.2212212212207" y="1600.0" type="line" identifier="MUSJPjCIXg"/>
      <point x="3687.2212212212207" y="629.0270270270271" type="line" identifier="VILP20cFmq"/>
      <point x="3673.6826826826823" y="629.0270270270271" type="line" identifier="z5b04GDwRN"/>
      <point x="1285.111111111111" y="1600.0" type="line" identifier="LL64NQ6WBE"/>
      <point x="414.4684684684685" y="1600.0" type="line" identifier="dzUaaP1sjt"/>
    </contour>
  </outline>
</glyph>
<glyph name="R.alt" format="2">
  <advance width="5495"/>
  <outline>
    <contour>
      <point x="879" y="913" type="line"/>
      <point x="878" y="1159" type="line"/>
      <point x="4614" y="1159" type="line"/>
      <point x="4614" y="913" type="line"/>
    </contour>
    <contour>
      <point x="5356" y="0" type="line"/>
      <point x="4883" y="606" type="line"/>
      <point x="5365" y="651" type="line"/>
      <point x="5357" y="1600" type="line"/>
      <point x="136" y="1600" type="line"/>
      <point x="136" y="0" type="line"/>
      <point x="878" y="0" type="line"/>
      <point x="878" y="486" type="line"/>
      <point x="4252" y="485" type="line"/>
      <point x="4674" y="0" type="line"/>
    </contour>
  </outline>
</glyph>
<glyph name="S.alt" format="2">
  <advance width="5134"/>
  <outline>
    <contour>
      <point x="80" y="0" type="line" identifier="09VlJ0BjUX"/>
      <point x="5054" y="0" type="line" identifier="EagWihqFM8"/>
      <point x="5054" y="981" type="line" identifier="KfNuQA7eZe"/>
      <point x="740" y="981" type="line" identifier="At364YZFEy"/>
      <point x="740" y="978" type="line"/>
      <point x="959" y="1169" type="line"/>
      <point x="4310" y="1169" type="line" identifier="3ZUkG35meB"/>
      <point x="4310" y="1231" type="line" identifier="DTOJhFIl15"/>
      <point x="5054" y="1231" type="line" identifier="9KDcrfQ5Ui"/>
      <point x="5054" y="1600" type="line" identifier="SaF9ojRFrW"/>
      <point x="459" y="1600" type="line"/>
      <point x="78" y="1024" type="line"/>
      <point x="78" y="619" type="line" identifier="3sQ8t8BZ6b"/>
      <point x="4310" y="619" type="line" identifier="yiV6OCBLHg"/>
      <point x="4310" y="431" type="line" identifier="9kdl9SYsn8"/>
      <point x="802" y="431" type="line" identifier="yZDWuX8LLe"/>
      <point x="802" y="516" type="line" identifier="jYb9001DTm"/>
      <point x="80" y="516" type="line" identifier="ho4DrS0rdW"/>
    </contour>
  </outline>
</glyph>
<glyph name="S.wide" format="2">
  <advance width="5134"/>
  <outline>
    <contour>
      <point x="80" y="0" type="line" identifier="09VlJ0BjUX"/>
      <point x="5054" y="0" type="line" identifier="EagWihqFM8"/>
      <point x="5054" y="981" type="line" identifier="KfNuQA7eZe"/>
      <point x="740" y="981" type="line" identifier="At364YZFEy"/>
      <point x="740" y="962" type="line"/>
      <point x="1037" y="1169" type="line"/>
      <point x="5054" y="1169" type="line" identifier="3ZUkG35meB"/>
      <point x="5054" y="1600" type="line" identifier="SaF9ojRFrW"/>
      <point x="537" y="1600" type="line"/>
      <point x="78" y="1004" type="line"/>
      <point x="78" y="619" type="line" identifier="3sQ8t8BZ6b"/>
      <point x="4310" y="619" type="line" identifier="yiV6OCBLHg"/>
      <point x="4310" y="431" type="line" identifier="9kdl9SYsn8"/>
      <point x="80" y="431" type="line" identifier="yZDWuX8LLe"/>
    </contour>
  </outline>
</glyph>
<glyph name="Z.wide" format="2">
  <advance width="5496"/>
  <outline>
    <contour>
      <point x="167" y="0" type="line"/>
      <point x="5328" y="0" type="line" identifier="pzdvPTirLJ"/>
      <point x="5328" y="441" type="line"/>
      <point x="920" y="441" type="line"/>
      <point x="920" y="731" type="line"/>
      <point x="5335" y="1104" type="line" identifier="yyb1NCCI5w"/>
      <point x="5335" y="1600" type="line" identifier="5FogYRSgkk"/>
      <point x="155" y="1600" type="line" identifier="svlFvrau4c"/>
      <point x="155" y="1159" type="line"/>
      <point x="4568" y="1159" type="line"/>
      <point x="4568" y="1126" type="line"/>
      <point x="167" y="770" type="line" identifier="teVKnpBcVb"/>
    </contour>
  </outline>
</glyph>
